<svg class="main-svg" xmlns="http://www.w3.org/2000/svg" xmlns:xlink="http://www.w3.org/1999/xlink" width="672" height="634" style=""><rect x="0" y="0" width="672" height="634" style="fill: rgb(255, 255, 255); fill-opacity: 1;"/><defs id="defs-c2cc8f"><g class="clips"><clipPath id="clipc2cc8fxyplot" class="plotclip"><rect width="521" height="497"/></clipPath><clipPath class="axesclip" id="clipc2cc8fx"><rect x="101" y="0" width="521" height="634"/></clipPath><clipPath class="axesclip" id="clipc2cc8fy"><rect x="0" y="60" width="672" height="497"/></clipPath><clipPath class="axesclip" id="clipc2cc8fxy"><rect x="101" y="60" width="521" height="497"/></clipPath></g><g class="gradients"/><g class="patterns"/></defs><g class="bglayer"><rect class="bg" x="101" y="60" width="521" height="497" style="fill: rgb(229, 236, 246); fill-opacity: 1; stroke-width: 0;"/></g><g class="layer-below"><g class="imagelayer"/><g class="shapelayer"/></g><g class="cartesianlayer"><g class="subplot xy"><g class="layer-subplot"><g class="shapelayer"/><g class="imagelayer"/></g><g class="gridlayer"><g class="x"><path class="xgrid crisp" transform="translate(117.83,0)" d="M0,60v497" style="stroke: rgb(255, 255, 255); stroke-opacity: 1; stroke-width: 1px;"/><path class="xgrid crisp" transform="translate(170.11,0)" d="M0,60v497" style="stroke: rgb(255, 255, 255); stroke-opacity: 1; stroke-width: 1px;"/><path class="xgrid crisp" transform="translate(222.39,0)" d="M0,60v497" style="stroke: rgb(255, 255, 255); stroke-opacity: 1; stroke-width: 1px;"/><path class="xgrid crisp" transform="translate(291.5,0)" d="M0,60v497" style="stroke: rgb(255, 255, 255); stroke-opacity: 1; stroke-width: 1px;"/><path class="xgrid crisp" transform="translate(343.78,0)" d="M0,60v497" style="stroke: rgb(255, 255, 255); stroke-opacity: 1; stroke-width: 1px;"/><path class="xgrid crisp" transform="translate(396.05,0)" d="M0,60v497" style="stroke: rgb(255, 255, 255); stroke-opacity: 1; stroke-width: 1px;"/><path class="xgrid crisp" transform="translate(465.16,0)" d="M0,60v497" style="stroke: rgb(255, 255, 255); stroke-opacity: 1; stroke-width: 1px;"/><path class="xgrid crisp" transform="translate(517.44,0)" d="M0,60v497" style="stroke: rgb(255, 255, 255); stroke-opacity: 1; stroke-width: 1px;"/><path class="xgrid crisp" transform="translate(569.72,0)" d="M0,60v497" style="stroke: rgb(255, 255, 255); stroke-opacity: 1; stroke-width: 1px;"/></g><g class="y"><path class="ygrid crisp" transform="translate(0,553.39)" d="M101,0h521" style="stroke: rgb(255, 255, 255); stroke-opacity: 1; stroke-width: 1px;"/><path class="ygrid crisp" transform="translate(0,518.4100000000001)" d="M101,0h521" style="stroke: rgb(255, 255, 255); stroke-opacity: 1; stroke-width: 1px;"/><path class="ygrid crisp" transform="translate(0,493.6)" d="M101,0h521" style="stroke: rgb(255, 255, 255); stroke-opacity: 1; stroke-width: 1px;"/><path class="ygrid crisp" transform="translate(0,474.35)" d="M101,0h521" style="stroke: rgb(255, 255, 255); stroke-opacity: 1; stroke-width: 1px;"/><path class="ygrid crisp" transform="translate(0,458.63)" d="M101,0h521" style="stroke: rgb(255, 255, 255); stroke-opacity: 1; stroke-width: 1px;"/><path class="ygrid crisp" transform="translate(0,445.33)" d="M101,0h521" style="stroke: rgb(255, 255, 255); stroke-opacity: 1; stroke-width: 1px;"/><path class="ygrid crisp" transform="translate(0,433.81)" d="M101,0h521" style="stroke: rgb(255, 255, 255); stroke-opacity: 1; stroke-width: 1px;"/><path class="ygrid crisp" transform="translate(0,423.65)" d="M101,0h521" style="stroke: rgb(255, 255, 255); stroke-opacity: 1; stroke-width: 1px;"/><path class="ygrid crisp" transform="translate(0,414.56)" d="M101,0h521" style="stroke: rgb(255, 255, 255); stroke-opacity: 1; stroke-width: 1px;"/><path class="ygrid crisp" transform="translate(0,354.78)" d="M101,0h521" style="stroke: rgb(255, 255, 255); stroke-opacity: 1; stroke-width: 1px;"/><path class="ygrid crisp" transform="translate(0,319.8)" d="M101,0h521" style="stroke: rgb(255, 255, 255); stroke-opacity: 1; stroke-width: 1px;"/><path class="ygrid crisp" transform="translate(0,294.99)" d="M101,0h521" style="stroke: rgb(255, 255, 255); stroke-opacity: 1; stroke-width: 1px;"/><path class="ygrid crisp" transform="translate(0,275.74)" d="M101,0h521" style="stroke: rgb(255, 255, 255); stroke-opacity: 1; stroke-width: 1px;"/><path class="ygrid crisp" transform="translate(0,260.02)" d="M101,0h521" style="stroke: rgb(255, 255, 255); stroke-opacity: 1; stroke-width: 1px;"/><path class="ygrid crisp" transform="translate(0,246.72)" d="M101,0h521" style="stroke: rgb(255, 255, 255); stroke-opacity: 1; stroke-width: 1px;"/><path class="ygrid crisp" transform="translate(0,235.2)" d="M101,0h521" style="stroke: rgb(255, 255, 255); stroke-opacity: 1; stroke-width: 1px;"/><path class="ygrid crisp" transform="translate(0,225.04)" d="M101,0h521" style="stroke: rgb(255, 255, 255); stroke-opacity: 1; stroke-width: 1px;"/><path class="ygrid crisp" transform="translate(0,215.96)" d="M101,0h521" style="stroke: rgb(255, 255, 255); stroke-opacity: 1; stroke-width: 1px;"/><path class="ygrid crisp" transform="translate(0,156.17000000000002)" d="M101,0h521" style="stroke: rgb(255, 255, 255); stroke-opacity: 1; stroke-width: 1px;"/><path class="ygrid crisp" transform="translate(0,121.19)" d="M101,0h521" style="stroke: rgb(255, 255, 255); stroke-opacity: 1; stroke-width: 1px;"/><path class="ygrid crisp" transform="translate(0,96.38)" d="M101,0h521" style="stroke: rgb(255, 255, 255); stroke-opacity: 1; stroke-width: 1px;"/><path class="ygrid crisp" transform="translate(0,77.13)" d="M101,0h521" style="stroke: rgb(255, 255, 255); stroke-opacity: 1; stroke-width: 1px;"/><path class="ygrid crisp" transform="translate(0,61.41)" d="M101,0h521" style="stroke: rgb(255, 255, 255); stroke-opacity: 1; stroke-width: 1px;"/></g></g><g class="zerolinelayer"/><path class="xlines-below"/><path class="ylines-below"/><g class="overlines-below"/><g class="xaxislayer-below"/><g class="yaxislayer-below"/><g class="overaxes-below"/><g class="plot" transform="translate(101,60)" clip-path="url(#clipc2cc8fxyplot)"><g class="scatterlayer mlayer"><g class="trace scatter trace7abf4d" style="stroke-miterlimit: 2; opacity: 1;"><g class="fills"/><g class="errorbars"/><g class="lines"><path class="js-line" d="M0,60.47L104.56,112.89L225.95,198.99L347.33,261.34L430.19,313.53L521,369.97" style="vector-effect: non-scaling-stroke; fill: none; stroke: rgb(0, 0, 255); stroke-opacity: 1; stroke-width: 2px; opacity: 1;"/></g><g class="points"/><g class="text"/></g><g class="trace scatter trace467bbd" style="stroke-miterlimit: 2;"><g class="fills"><g><path class="js-fill" d="M0,68.76L104.56,130.52L225.95,207.98L347.33,266.56L430.19,325.05L521,388.23L521,351.14L430.19,297.85L225.95,186.09L104.56,99.66L0,48.45Z" style="fill: rgb(0, 0, 255); fill-opacity: 0.5; stroke-width: 0;"/></g></g><g class="errorbars"/><g class="lines"><path class="js-line" d="M0,48.45L104.56,99.66L225.95,186.09L430.19,297.85L521,351.14" style="vector-effect: non-scaling-stroke; fill: none; stroke: rgb(0, 0, 255); stroke-opacity: 1; stroke-width: 0.5px; opacity: 1;"/></g><g class="points"/><g class="text"/></g><g class="trace scatter trace8384aa" style="stroke-miterlimit: 2;"><g class="fills"/><g class="errorbars"/><g class="lines"><path class="js-line" d="M0,68.76L104.56,130.52L225.95,207.98L347.33,266.56L430.19,325.05L521,388.23" style="vector-effect: non-scaling-stroke; fill: none; stroke: rgb(0, 0, 255); stroke-opacity: 1; stroke-width: 0.5px; opacity: 1;"/></g><g class="points"/><g class="text"/></g><g class="trace scatter trace0c64c1" style="stroke-miterlimit: 2; opacity: 1;"><g class="fills"/><g class="errorbars"/><g class="lines"><path class="js-line" d="M0,34.03L104.56,177.32L225.95,253.75L347.33,318.98L430.19,381.7L521,426.34" style="vector-effect: non-scaling-stroke; fill: none; stroke: rgb(255, 0, 0); stroke-opacity: 1; stroke-width: 2px; opacity: 1;"/></g><g class="points"/><g class="text"/></g><g class="trace scatter trace456191" style="stroke-miterlimit: 2;"><g class="fills"><g><path class="js-fill" d="M0,48.05L104.56,185.18L225.95,265.28L347.33,344.56L430.19,389L521,429.23L521,414.32L430.19,372.75L347.33,312.35L225.95,244.3L104.56,161.14L0,24.85Z" style="fill: rgb(255, 0, 0); fill-opacity: 0.5; stroke-width: 0;"/></g></g><g class="errorbars"/><g class="lines"><path class="js-line" d="M0,24.85L104.56,161.14L225.95,244.3L347.33,312.35L430.19,372.75L521,414.32" style="vector-effect: non-scaling-stroke; fill: none; stroke: rgb(255, 0, 0); stroke-opacity: 1; stroke-width: 0.5px; opacity: 1;"/></g><g class="points"/><g class="text"/></g><g class="trace scatter trace2f7d1b" style="stroke-miterlimit: 2;"><g class="fills"/><g class="errorbars"/><g class="lines"><path class="js-line" d="M0,48.05L104.56,185.18L225.95,265.28L347.33,344.56L430.19,389L521,429.23" style="vector-effect: non-scaling-stroke; fill: none; stroke: rgb(255, 0, 0); stroke-opacity: 1; stroke-width: 0.5px; opacity: 1;"/></g><g class="points"/><g class="text"/></g><g class="trace scatter trace398899" style="stroke-miterlimit: 2; opacity: 1;"><g class="fills"/><g class="errorbars"/><g class="lines"><path class="js-line" d="M0,162.75L104.56,215.07L225.95,290.28L347.33,358.84L430.19,403.53L521,452.48" style="vector-effect: non-scaling-stroke; fill: none; stroke: rgb(255, 255, 0); stroke-opacity: 1; stroke-width: 2px; opacity: 1;"/></g><g class="points"/><g class="text"/></g><g class="trace scatter trace012da0" style="stroke-miterlimit: 2;"><g class="fills"><g><path class="js-fill" d="M0,175.13L104.56,246.19L225.95,302.75L347.33,381.75L430.19,417.97L521,472.15L521,445.56L430.19,390.55L347.33,347.16L225.95,286.11L104.56,204.27L0,146.33Z" style="fill: rgb(255, 255, 0); fill-opacity: 0.5; stroke-width: 0;"/></g></g><g class="errorbars"/><g class="lines"><path class="js-line" d="M0,146.33L104.56,204.27L225.95,286.11L347.33,347.16L430.19,390.55L521,445.56" style="vector-effect: non-scaling-stroke; fill: none; stroke: rgb(255, 255, 0); stroke-opacity: 1; stroke-width: 0.5px; opacity: 1;"/></g><g class="points"/><g class="text"/></g><g class="trace scatter trace371fad" style="stroke-miterlimit: 2;"><g class="fills"/><g class="errorbars"/><g class="lines"><path class="js-line" d="M0,175.13L104.56,246.19L225.95,302.75L347.33,381.75L430.19,417.97L521,472.15" style="vector-effect: non-scaling-stroke; fill: none; stroke: rgb(255, 255, 0); stroke-opacity: 1; stroke-width: 0.5px; opacity: 1;"/></g><g class="points"/><g class="text"/></g><g class="trace scatter tracee76ce0" style="stroke-miterlimit: 2; opacity: 1;"><g class="fills"/><g class="errorbars"/><g class="lines"><path class="js-line" d="M0,52.72L104.56,90.94L225.95,174.2L347.33,279.91L430.19,332.92L521,377.68" style="vector-effect: non-scaling-stroke; fill: none; stroke: rgb(255, 105, 180); stroke-opacity: 1; stroke-width: 2px; opacity: 1;"/></g><g class="points"/><g class="text"/></g><g class="trace scatter tracec666c6" style="stroke-miterlimit: 2;"><g class="fills"><g><path class="js-fill" d="M0,63.67L104.56,101.73L225.95,192.36L347.33,296.45L430.19,343.35L521,401.88L521,363.61L430.19,319.84L347.33,254.84L225.95,149.91L104.56,86.01L0,36.57Z" style="fill: rgb(255, 105, 180); fill-opacity: 0.5; stroke-width: 0;"/></g></g><g class="errorbars"/><g class="lines"><path class="js-line" d="M0,36.57L104.56,86.01L225.95,149.91L347.33,254.84L430.19,319.84L521,363.61" style="vector-effect: non-scaling-stroke; fill: none; stroke: rgb(255, 105, 180); stroke-opacity: 1; stroke-width: 0.5px; opacity: 1;"/></g><g class="points"/><g class="text"/></g><g class="trace scatter trace2c9f0a" style="stroke-miterlimit: 2;"><g class="fills"/><g class="errorbars"/><g class="lines"><path class="js-line" d="M0,63.67L104.56,101.73L225.95,192.36L347.33,296.45L430.19,343.35L521,401.88" style="vector-effect: non-scaling-stroke; fill: none; stroke: rgb(255, 105, 180); stroke-opacity: 1; stroke-width: 0.5px; opacity: 1;"/></g><g class="points"/><g class="text"/></g></g></g><g class="overplot"/><path class="xlines-above crisp" d="M0,0" style="fill: none;"/><path class="ylines-above crisp" d="M0,0" style="fill: none;"/><g class="overlines-above"/><g class="xaxislayer-above"><g class="xtick"><text text-anchor="middle" x="0" y="576" transform="translate(117.83,0)" style="font-family: 'Open Sans', verdana, arial, sans-serif; font-size: 18px; fill: rgb(42, 63, 95); fill-opacity: 1; white-space: pre; opacity: 1;">5</text></g><g class="xtick"><text text-anchor="middle" x="0" y="582" style="font-family: 'Open Sans', verdana, arial, sans-serif; font-size: 24px; fill: rgb(42, 63, 95); fill-opacity: 1; white-space: pre; opacity: 1;" transform="translate(170.11,0)">1000</text></g><g class="xtick"><text text-anchor="middle" x="0" y="576" style="font-family: 'Open Sans', verdana, arial, sans-serif; font-size: 18px; fill: rgb(42, 63, 95); fill-opacity: 1; white-space: pre; opacity: 1;" transform="translate(222.39,0)">2</text></g><g class="xtick"><text text-anchor="middle" x="0" y="576" style="font-family: 'Open Sans', verdana, arial, sans-serif; font-size: 18px; fill: rgb(42, 63, 95); fill-opacity: 1; white-space: pre; opacity: 1;" transform="translate(291.5,0)">5</text></g><g class="xtick"><text text-anchor="middle" x="0" y="582" style="font-family: 'Open Sans', verdana, arial, sans-serif; font-size: 24px; fill: rgb(42, 63, 95); fill-opacity: 1; white-space: pre; opacity: 1;" transform="translate(343.78,0)">10k</text></g><g class="xtick"><text text-anchor="middle" x="0" y="576" style="font-family: 'Open Sans', verdana, arial, sans-serif; font-size: 18px; fill: rgb(42, 63, 95); fill-opacity: 1; white-space: pre; opacity: 1;" transform="translate(396.05,0)">2</text></g><g class="xtick"><text text-anchor="middle" x="0" y="576" style="font-family: 'Open Sans', verdana, arial, sans-serif; font-size: 18px; fill: rgb(42, 63, 95); fill-opacity: 1; white-space: pre; opacity: 1;" transform="translate(465.16,0)">5</text></g><g class="xtick"><text text-anchor="middle" x="0" y="582" style="font-family: 'Open Sans', verdana, arial, sans-serif; font-size: 24px; fill: rgb(42, 63, 95); fill-opacity: 1; white-space: pre; opacity: 1;" transform="translate(517.44,0)">100k</text></g><g class="xtick"><text text-anchor="middle" x="0" y="576" style="font-family: 'Open Sans', verdana, arial, sans-serif; font-size: 18px; fill: rgb(42, 63, 95); fill-opacity: 1; white-space: pre; opacity: 1;" transform="translate(569.72,0)">2</text></g></g><g class="yaxislayer-above"><g class="ytick"><text text-anchor="end" x="100" y="6.3" transform="translate(0,553.39)" style="font-family: 'Open Sans', verdana, arial, sans-serif; font-size: 18px; fill: rgb(42, 63, 95); fill-opacity: 1; white-space: pre; opacity: 1;">2</text></g><g class="ytick"><text text-anchor="end" x="100" y="6.3" style="font-family: 'Open Sans', verdana, arial, sans-serif; font-size: 18px; fill: rgb(42, 63, 95); fill-opacity: 1; white-space: pre; opacity: 1;" transform="translate(0,518.4100000000001)">3</text></g><g class="ytick"><text text-anchor="end" x="100" y="6.3" style="font-family: 'Open Sans', verdana, arial, sans-serif; font-size: 18px; fill: rgb(42, 63, 95); fill-opacity: 1; white-space: pre; opacity: 1;" transform="translate(0,493.6)">4</text></g><g class="ytick"><text text-anchor="end" x="100" y="6.3" style="font-family: 'Open Sans', verdana, arial, sans-serif; font-size: 18px; fill: rgb(42, 63, 95); fill-opacity: 1; white-space: pre; opacity: 1;" transform="translate(0,474.35)">5</text></g><g class="ytick"><text text-anchor="end" x="100" y="6.3" style="font-family: 'Open Sans', verdana, arial, sans-serif; font-size: 18px; fill: rgb(42, 63, 95); fill-opacity: 1; white-space: pre; opacity: 1;" transform="translate(0,458.63)">6</text></g><g class="ytick"><text text-anchor="end" x="100" y="6.3" style="font-family: 'Open Sans', verdana, arial, sans-serif; font-size: 18px; fill: rgb(42, 63, 95); fill-opacity: 1; white-space: pre; opacity: 1;" transform="translate(0,445.33)">7</text></g><g class="ytick"><text text-anchor="end" x="100" y="6.3" style="font-family: 'Open Sans', verdana, arial, sans-serif; font-size: 18px; fill: rgb(42, 63, 95); fill-opacity: 1; white-space: pre; opacity: 1;" transform="translate(0,433.81)">8</text></g><g class="ytick"><text text-anchor="end" x="100" y="6.3" style="font-family: 'Open Sans', verdana, arial, sans-serif; font-size: 18px; fill: rgb(42, 63, 95); fill-opacity: 1; white-space: pre; opacity: 1;" transform="translate(0,423.65)">9</text></g><g class="ytick"><text text-anchor="end" x="94" y="4.399999999999999" style="font-family: 'Open Sans', verdana, arial, sans-serif; font-size: 24px; fill: rgb(42, 63, 95); fill-opacity: 1; white-space: pre; opacity: 1;" transform="translate(0,414.56)">0.01</text></g><g class="ytick"><text text-anchor="end" x="100" y="6.3" style="font-family: 'Open Sans', verdana, arial, sans-serif; font-size: 18px; fill: rgb(42, 63, 95); fill-opacity: 1; white-space: pre; opacity: 1;" transform="translate(0,354.78)">2</text></g><g class="ytick"><text text-anchor="end" x="100" y="6.3" style="font-family: 'Open Sans', verdana, arial, sans-serif; font-size: 18px; fill: rgb(42, 63, 95); fill-opacity: 1; white-space: pre; opacity: 1;" transform="translate(0,319.8)">3</text></g><g class="ytick"><text text-anchor="end" x="100" y="6.3" style="font-family: 'Open Sans', verdana, arial, sans-serif; font-size: 18px; fill: rgb(42, 63, 95); fill-opacity: 1; white-space: pre; opacity: 1;" transform="translate(0,294.99)">4</text></g><g class="ytick"><text text-anchor="end" x="100" y="6.3" style="font-family: 'Open Sans', verdana, arial, sans-serif; font-size: 18px; fill: rgb(42, 63, 95); fill-opacity: 1; white-space: pre; opacity: 1;" transform="translate(0,275.74)">5</text></g><g class="ytick"><text text-anchor="end" x="100" y="6.3" style="font-family: 'Open Sans', verdana, arial, sans-serif; font-size: 18px; fill: rgb(42, 63, 95); fill-opacity: 1; white-space: pre; opacity: 1;" transform="translate(0,260.02)">6</text></g><g class="ytick"><text text-anchor="end" x="100" y="6.3" style="font-family: 'Open Sans', verdana, arial, sans-serif; font-size: 18px; fill: rgb(42, 63, 95); fill-opacity: 1; white-space: pre; opacity: 1;" transform="translate(0,246.72)">7</text></g><g class="ytick"><text text-anchor="end" x="100" y="6.3" style="font-family: 'Open Sans', verdana, arial, sans-serif; font-size: 18px; fill: rgb(42, 63, 95); fill-opacity: 1; white-space: pre; opacity: 1;" transform="translate(0,235.2)">8</text></g><g class="ytick"><text text-anchor="end" x="100" y="6.3" style="font-family: 'Open Sans', verdana, arial, sans-serif; font-size: 18px; fill: rgb(42, 63, 95); fill-opacity: 1; white-space: pre; opacity: 1;" transform="translate(0,225.04)">9</text></g><g class="ytick"><text text-anchor="end" x="94" y="4.399999999999999" style="font-family: 'Open Sans', verdana, arial, sans-serif; font-size: 24px; fill: rgb(42, 63, 95); fill-opacity: 1; white-space: pre; opacity: 1;" transform="translate(0,215.96)">0.1</text></g><g class="ytick"><text text-anchor="end" x="100" y="6.3" style="font-family: 'Open Sans', verdana, arial, sans-serif; font-size: 18px; fill: rgb(42, 63, 95); fill-opacity: 1; white-space: pre; opacity: 1;" transform="translate(0,156.17000000000002)">2</text></g><g class="ytick"><text text-anchor="end" x="100" y="6.3" style="font-family: 'Open Sans', verdana, arial, sans-serif; font-size: 18px; fill: rgb(42, 63, 95); fill-opacity: 1; white-space: pre; opacity: 1;" transform="translate(0,121.19)">3</text></g><g class="ytick"><text text-anchor="end" x="100" y="6.3" style="font-family: 'Open Sans', verdana, arial, sans-serif; font-size: 18px; fill: rgb(42, 63, 95); fill-opacity: 1; white-space: pre; opacity: 1;" transform="translate(0,96.38)">4</text></g><g class="ytick"><text text-anchor="end" x="100" y="6.3" style="font-family: 'Open Sans', verdana, arial, sans-serif; font-size: 18px; fill: rgb(42, 63, 95); fill-opacity: 1; white-space: pre; opacity: 1;" transform="translate(0,77.13)">5</text></g><g class="ytick"><text text-anchor="end" x="100" y="6.3" style="font-family: 'Open Sans', verdana, arial, sans-serif; font-size: 18px; fill: rgb(42, 63, 95); fill-opacity: 1; white-space: pre; opacity: 1;" transform="translate(0,61.41)">6</text></g></g><g class="overaxes-above"/></g></g><g class="polarlayer"/><g class="ternarylayer"/><g class="geolayer"/><g class="funnelarealayer"/><g class="pielayer"/><g class="iciclelayer"/><g class="treemaplayer"/><g class="sunburstlayer"/><g class="glimages"/><defs id="topdefs-c2cc8f"><g class="clips"/></defs><g class="layer-above"><g class="imagelayer"/><g class="shapelayer"/></g><g class="infolayer"><g class="g-gtitle"/><g class="g-xtitle"><text class="xtitle" x="361.5" y="622.1003921508789" text-anchor="middle" style="font-family: 'Open Sans', verdana, arial, sans-serif; font-size: 29px; fill: rgb(42, 63, 95); opacity: 1; font-weight: normal; white-space: pre;">Number of samples</text></g><g class="g-ytitle" transform="translate(14.42578125,0)"><text class="ytitle" transform="rotate(-90,11.974414062500003,308.5)" x="11.974414062500003" y="308.5" text-anchor="middle" style="font-family: 'Open Sans', verdana, arial, sans-serif; font-size: 29px; fill: rgb(42, 63, 95); opacity: 1; font-weight: normal; white-space: pre;">Mean normalized error</text></g></g></svg>